<?xml version="1.0" encoding="utf-8"?>
<!-- Generator: Adobe Illustrator 24.2.3, SVG Export Plug-In . SVG Version: 6.00 Build 0)  -->
<svg version="1.1" id="Слой_1" xmlns="http://www.w3.org/2000/svg" xmlns:xlink="http://www.w3.org/1999/xlink" x="0px" y="0px"
	 viewBox="0 0 32 32" style="enable-background:new 0 0 32 32;" xml:space="preserve">
<style type="text/css">
	.st0{fill:#FFFFFF;}
</style>
<path class="st0" d="M-18.6,15H-22v-3.5c0-1.3-2.1-1.3-2.1,0V15h-3.5c-1.3,0-1.3,2.1,0,2.1h3.5v3.5c0,1.3,2.1,1.3,2.1,0V17h3.5
	C-17.2,17-17.2,15-18.6,15z"/>
<path class="st0" d="M20.7,15.1c-3,0-6,0-9,0c-1.3,0-1.3,2.1,0,2.1c3,0,6,0,9,0C22,17.2,22,15.1,20.7,15.1z"/>
</svg>
