<svg id="Слой_1" data-name="Слой 1" xmlns="http://www.w3.org/2000/svg" viewBox="0 0 467.37 472.23"><defs><style>.cls-1{fill:#90b2f8;}.cls-2{fill:#e2e9fc;}.cls-3{fill:#bccffa;}.cls-4{fill:#1a0f90;}.cls-5{fill:#e3eafc;}.cls-6{fill:#fd7062;}.cls-7{fill:#fd7c71;}.cls-8{fill:#4849ef;}.cls-9{fill:#e7edfd;}.cls-10{fill:#4648ec;}.cls-11{fill:#4648ed;}.cls-12{fill:#fd7064;}.cls-13{fill:#fd776c;}.cls-14{fill:#e0e7fa;}.cls-15{fill:#fd7f76;}.cls-16{fill:#0b0160;}.cls-17{fill:#fd766c;}.cls-18{fill:#fc8581;}.cls-19{fill:#fd857f;}.cls-20{fill:#fd8681;}.cls-21{fill:#120769;}.cls-22{fill:#e7eefc;}.cls-23{fill:#150973;}.cls-24{fill:#db8378;}.cls-25{fill:#dee1f6;}.cls-26{fill:#2526b3;}.cls-27{fill:#1e21ad;}.cls-28{fill:#7d99f0;}.cls-29{fill:#1a0f8f;}.cls-30{fill:#c55d68;}.cls-31{fill:#0e0458;}.cls-32{fill:#1d27b4;}.cls-33{fill:#474aef;}.cls-34{fill:#96b4f2;}.cls-35{fill:#120876;}.cls-36{fill:#0d046a;}.cls-37{fill:#90aff7;}.cls-38{fill:#eba2ab;}.cls-39{fill:#4742da;}.cls-40{fill:#ca9ac6;}.cls-41{fill:#fe8882;}.cls-42{fill:#fe827b;}.cls-43{fill:#e3e6f8;}.cls-44{fill:#fe8178;}.cls-45{fill:#4e50fd;}.cls-46{fill:#4d4ff9;}.cls-47{fill:#040149;}.cls-48{fill:#4446e9;}.cls-49{fill:#0b025e;}.cls-50{fill:#fd7469;}.cls-51{fill:#0c117c;}.cls-52{fill:#91b2f8;}.cls-53{fill:#91b2f7;}.cls-54{fill:#1b108c;}.cls-55{fill:#201588;}.cls-56{fill:#ae99d5;}.cls-57{fill:#f9a1a3;}.cls-58{fill:#faa6a7;}.cls-59{fill:#4044df;}.cls-60{fill:#e8f0fd;}.cls-61{fill:#e85f5a;}.cls-62{fill:#4e52fc;}.cls-63{fill:#0f0769;}.cls-64{fill:#faaaac;}.cls-65{fill:#e4f1fd;}.cls-66{fill:#e5effe;}.cls-67{fill:#f9b4b6;}.cls-68{fill:#170f86;}.cls-69{fill:#d79ab2;}.cls-70{fill:#96b5f4;}.cls-71{fill:#96b3f2;}</style></defs><path class="cls-1" d="M27.05,155.89c-7.79-23.25-7.86-47.35-8.37-71.49-.39-18.77-.83-37.56-2.61-56.28-.54-5.79,2.49-8.85,7.89-7.75C52.64,26.21,80.26,35,105.6,50.05c1.57.93,3,2.05,4.51,3.09,1.19,2.64-.82,4.34-1.89,6.3-2.89,5.33-6.64,10.14-6.15,16.92.57,8,4.37,14.26,11.88,17.33,1.52.63,3.2.94,4.35,2.27,1.11,1.83.88,3.87.88,5.85q0,19.48,0,39a8.34,8.34,0,0,1,0,1c-.23,1.89.55,4.65-1.88,5.09-1.78.33-2.93-2-3.63-3.68-4.49-10.82-10.38-20.9-16.6-30.75C86.56,95.84,75.47,79.62,61.81,65.34c-5.63-5.89-10.74-12.28-15.9-16.84a402.47,402.47,0,0,1,65.71,98.19c5.13,10.73,8.54,21.66,7.79,34-.9,14.6-.19,29.3-.24,44,0,2.26.6,4.72-1.38,6.61-3.28-.4-2.94-3.11-3.33-5.29a90.82,90.82,0,0,0-10.16-28.47c-4.48-8-11.39-12.12-20.09-14.1-13-2.95-26.1-1.83-39.19-1.78a16.1,16.1,0,0,1-3.47.07A50.56,50.56,0,0,1,27.05,155.89Z"/><path class="cls-2" d="M412.84,68.09c1.74,1.64,1.23,3.84,1,5.66-1.21,8,1.75,14.24,6.55,20.4,16,20.63,26.89,43.93,34.61,68.81A286.27,286.27,0,0,1,467,232.6c1.37,24.84-1.16,49.1-5.89,73.41-3.77,19.37-10.35,37.62-18.83,55.31a12.87,12.87,0,0,0-.61,2.9c-2.57-.73-2.14-3.1-2.55-4.9-4.17-18.43-7.8-37-11.46-55.51-.92-4.67-1.89-8.76-7.71-9.28a4.87,4.87,0,0,1-3.73-3c-2.59-11.3-5.12-22.63-12-32.36a11.09,11.09,0,0,1-1.55-4.18c-.56-6.68,0-13.38-.38-20.07-.66-24.38-1.28-48.77-2.21-73.14-.76-19.72-1.79-39.43-2.75-59.14-.05-3.38,1.73-5.29,4.74-6.71,5-2.36,8.61-6,9.33-11.83.31-4.85-.42-9.72.45-14.55A4.48,4.48,0,0,1,412.84,68.09Z"/><path class="cls-3" d="M41,181.07c18.22-1.68,36.53-3.16,53.79,4.64,8,3.6,11.82,11.51,14.9,19.25,3,7.5,6.09,15.08,6.31,23.37a3.54,3.54,0,0,0,1.81,2.82c2.67,3,1.16,6.69,1.49,10.06a57,57,0,0,1,0,6c-1.1,6.84-2.34,13.64-5.79,19.8-3.1.68-3.57-2-4.3-3.77-3.28-7.84-7.64-15.17-11-23-8.88-20.7-25.44-32.22-45.95-39.09-6.45-2.15-13-3.94-18-3.92a86.9,86.9,0,0,1,45.14,18.6c6.38,5.08,11.08,11.51,15,18.51,6.13,11.06,11.08,22.73,16.6,34.1a11.94,11.94,0,0,1,1.18,5.82c-.38,2.67-.59,5.42-3.23,7-2.2.17-3.73-1.23-5.33-2.38-9.75-7-20.38-8.34-31.75-5a9.13,9.13,0,0,1-4.38.68c-8.27-5.5-17-10.38-23-18.79-3.46-4.92-7.13-9.85-8.81-15.55-3.47-11.77-9.54-21.86-17.52-31a37.48,37.48,0,0,1-5.25-7.24c-2.86-4.35-7.49-6.85-11-10.53C-1,188.43-.66,187,3.52,186c4.77-1.13,9.6-2,14.41-2.94C25.42,180.38,33,178.6,41,181.07Z"/><path class="cls-4" d="M122,455.91c-2.81-1-2.36-3.58-2.84-5.67-.55-2.4-.93-4.85-1.38-7.27-3.85-10.25-4.19-21.16-6-31.8-4-24.13-6.79-48.46-11.13-72.55a12.18,12.18,0,0,1-.18-2.49c-.14-8.41-2.54-16.64-2.06-25.12.27-4.88,1.09-9.5,4.92-13,4.17.28,7.46,3,11.48,4,9.16,2.17,18.37,4.06,27.6,5.89,2.56.5,5.27.81,7.15,3,3.45,7.64,4.85,15.86,6.55,24q6.86,32.69,12.43,65.64c1.16,6.79,1.17,6.73,8.14,7.16,2,.12,4.49-.53,5.33,2.36-2.22,2.05-5,1.31-7.56,1.41-2.95.13-4.29,1.21-3.49,4.33,2.1,8.17,2.92,16.56,4.19,24.87.06,2.63-.39,5-2.7,6.71-2.11,1.08-4.45,1.5-6.63,2.38-1.16.1-2.49.36-2.93-1.1-4.28-13.92-9.64-27.44-14.68-41.07-2.88-10.75-6.88-21.12-10.42-31.64-.53-1.57-1.43-3.13-1.19-4.78.32-2.2-1.66-.49-2-1.38a122,122,0,0,0-5.29-17.81c-.15,32,2.2,64.37,3.44,96.74-2.94,1.31-.7,3.49-.87,5.27a2.15,2.15,0,0,1-2,1.57c-2.3-.22-4.43.73-6.67.95A1.47,1.47,0,0,1,122,455.91Z"/><path class="cls-1" d="M104.08,298.14c-7.1,9.42-3.92,19.83-2.92,30,.26,2.62.48,5.23.71,7.84A7.47,7.47,0,0,1,98,338.12c-15.57,3.25-30.76,8.37-46.69,9.93C40,349.16,29.49,347.26,21,338.87c-5.88-6.09-12.25-11.75-16.34-19.37-2.68-5-2.38-5.82,3.16-7.66A41.39,41.39,0,0,0,11.9,310a7.64,7.64,0,0,1,2.45-2.45c14-7.3,25.9-17.52,38.54-26.73a77.14,77.14,0,0,1,9.37-5.72c1.41-.75,2.84-1.87,4.65-1,11.46-4.25,22.8-4.85,33.77,1.44,2.84,1.62,5.43,3.67,8.14,5.53,1.7,2.73-.12,5.13-.93,7.5C106.77,291.78,106.35,295.34,104.08,298.14Z"/><path class="cls-5" d="M21,338.87c9,5.37,18.32,9.36,29.06,8a266.48,266.48,0,0,0,36.33-7.52c5.08-1.39,10.31-2.25,15.47-3.35q2.7,17.69,5.4,35.38,5.16,34,10.31,68.1c.17,1.14.13,2.32.19,3.48-5.58-5.4-13-7.65-19.54-11.52C80.42,420.83,64.56,408.08,51.51,392a186,186,0,0,1-18.75-27.43C28.24,356.29,23.86,347.92,21,338.87Z"/><path class="cls-6" d="M416.94,290.81c.92,2.83,3.48,2.95,5.69,3,3.21,0,4.62,1.17,5.26,4.43,4.23,21.43,8.67,42.81,13.06,64.21a11.56,11.56,0,0,0,.72,1.81c2.62,13.2,5.2,26.4,7.87,39.59,4,19.87,8.15,39.72,12.16,59.6.59,2.94,1.06,6.06-2.55,7.73-6.89.73-13.8.15-20.7.3-2.16-.87-1.87-2.85-2-4.58-.36-5.23-1.86-10.23-3-15.31-1.77-8.12-2.06-16.48-4-24.58-.61-10.64-3.07-21-4.7-31.48-4.35-27.89-9.18-55.7-13.7-83.56-.7-4.25-1.72-8.45-2.25-12.74-.25-2-.6-4,.38-5.85,1.1-1.47,2.75-1.47,4.33-1.66A10.27,10.27,0,0,0,416.94,290.81Z"/><path class="cls-7" d="M297.53,471.1c-3.49-1.08-4.31-4-4.86-7.08-2.08-4.84.87-9.41.75-14.14.55-6.39.85-12.82,3.37-18.85,1.28.36,1.56-.2,1.5-1.43-.3-6.12,1.54-11.87,3.14-17.67,1.87-1.61,4-2.91,5.41-5.07,2.14-3.23,5.62-4,8.12-1.37,7.35,7.65,17.39,10.8,25.93,16.43a13.52,13.52,0,0,1,5.44,6.85c3.45,9.19,9.45,15,19.95,15,5.12,0,8.77,2.42,10.65,7.45,2.1,5.6,4.19,11.17,10.65,13.62,2.57,1,1.94,3.17-.27,4.52s-4.67,1.54-7.2,1.59c-8.29.19-16.61-.54-24.89.48q-26.14,0-52.27,0C301.14,471.45,299.3,471.78,297.53,471.1Z"/><path class="cls-8" d="M412.84,68.09c0,.32-.06.64-.11,1a69.05,69.05,0,0,0-.13,16c-.88,6.1-4.64,9.84-10,12.27-1.68.76-4,.83-4,3.52-4.5-.29-9.07-.26-13.24-2.41-6.72-2.6-10.1-7.78-11.39-14.61a16.23,16.23,0,0,1-.38-5.37,27.4,27.4,0,0,0-3.94-16.86,13.7,13.7,0,0,1-.66-1.33A60.53,60.53,0,0,0,364.87,51c-6.2-14.52-12.77-28.88-18.66-43.52-.66-1.64-1.9-3.2-1.23-5.18,8.63,0,17.26,0,25.88-.11,3,0,4.28,1.93,5.58,4.18Q392.31,33.71,408.28,61C409.7,63.42,411.32,65.73,412.84,68.09Z"/><path class="cls-9" d="M66.91,274.05c-13.66,6.3-24.43,16.8-36.69,25.14-5.87,4-11.74,8-18.32,10.79-1.48-11-3.28-21.88-4.37-32.88a210.54,210.54,0,0,1,0-36.3c1-13,3.15-25.88,5.42-38.72,8.83,8.64,16.9,18,21,29.79,3.38,9.86,7.74,19,14.55,26.91A55.43,55.43,0,0,0,62,269.59C63.86,270.75,66.32,271.38,66.91,274.05Z"/><path class="cls-10" d="M229.57,1.16l29,.21c2.24,1.93,1.53,4.57,1.63,7,.77,18.55-1.41,37.05-1,55.6.09,4.12.61,8.28-.18,12.4-1.24,2.79-.12,6.14-2,8.78-3.49-.58-2.56-3.5-2.57-5.51-.05-10.12-.34-8.75-9-9.19-5.48-.28-10.93-1.1-16.44-.79-6.25.36-7.3,1.52-7.73,7.79-.14,2.12.73,4.87-2.43,5.81-2.73-5.87-1.88-12.07-.83-18,2.84-15.93,5.24-31.92,7.65-47.92.71-4.71,1.92-9.36,2.22-14.15A4.81,4.81,0,0,1,229.57,1.16Z"/><path class="cls-11" d="M315.9,2.26a1.19,1.19,0,0,1,.82-.18c4.24,6.58,4.92,14.37,7.19,21.59,4.17,13.27,7.53,26.8,11.64,40.09A44.87,44.87,0,0,1,336.64,84c-.48,1.07-1,2.11-2.34,2.32-3-2.41-1.76-5.78-1.91-8.77-.26-5.29-.51-5.78-5.62-5.88-7.61-.16-15.22,0-22.82-.08-3.44,0-4.55,1.48-4.71,4.77-.16,3,1.42,6.71-2.24,9A3.53,3.53,0,0,1,295.62,83a165.85,165.85,0,0,0-2.34-30.69c-1.24-7.19-2.11-14.42-3.08-21.63-1.13-8.36-2.9-16.65-3.25-25.11a3.37,3.37,0,0,1,.94-2.74c7.54-.51,15.1-.07,22.65-.25C312.32,2.58,314.15,3,315.9,2.26Z"/><path class="cls-12" d="M345,2.29c5.29,12.1,10.62,24.19,15.87,36.3,1.77,4.09,3.36,8.26,5,12.39,1.07,3.15,2.1,6.32,4.06,9.07l0,0c.59,1.36.86,2.82,1.49,4.2,2.41,5.28,1.37,7.38-4.22,7.21-8.78-.26-17.54-1-26.33-1-3,0-4.63-1.77-5.53-4.73-4-13.13-7.46-26.4-11.54-39.51-2.23-7.18-3.85-14.56-6.32-21.69a2.55,2.55,0,0,1,.36-2.37Z"/><path class="cls-13" d="M229.57,1.16l-.72,1c-1.79,14.58-4.7,29-6.72,43.52a201.16,201.16,0,0,1-3.66,20.53c-.57,2.3-1.73,3.17-3.68,3.2-10.14.2-20.3.79-30.37-1-3-.55-3.77-2.26-2.88-5.08,4.1-12.95,8-25.95,12.23-38.87,1.73-5.32,3.51-10.71,4.75-16.2A16.8,16.8,0,0,1,201.84,1Z"/><path class="cls-14" d="M294.55,449.84c.16,4.83-1.46,9.43-1.88,14.18-7.68,1-15.33,2.24-23,2.89-10.56.9-21.15,1.2-31.77,1.14-14.93-.08-29.62-2.24-44.32-4.35-1.23-.18-2.26-.79-2.63,1a1.24,1.24,0,0,1-1.74.25c-5.25-3.63-11.12-6.32-16.14-10.34-1.66-3-.25-4.33,2.61-4.82a29.56,29.56,0,0,1,5-.17H240c2.33,0,4.67.13,6.91-.68,11.53-.73,23.08-.07,34.61-.38C285.87,448.8,290.41,447.37,294.55,449.84Z"/><path class="cls-15" d="M117.8,96.65c-4.26-2-8.82-3.31-12.18-7.13-5.1-5.78-6.34-17.33-2.58-24,2.33-4.14,5.61-7.76,7.07-12.39,5.79-6.76,9.21-15,14.3-22.24,1.12-1.6,2.17-3.26,3.26-4.89,2.76.74,1.13,2.45.65,3.62-2.06,4.95-4.31,9.78-5.54,15.06-.56,2.38-.8,3.17,2,3.24,6.52.17,13.18-1.32,19.55,1.6,1.73.79,2.44-1.14,3.26-2.36,1.13-1.68,1.4-4.25,4.26-4.21,1.32,1.8.42,3.54-.36,5.13C148.48,54.33,146,60.84,142.81,67c-1.08,3.23-.69,6.58-.51,9.84a20.08,20.08,0,0,1-5.86,15.75,20.57,20.57,0,0,1-17.08,4.65A14.75,14.75,0,0,1,117.8,96.65Z"/><path class="cls-16" d="M148.86,407.22c5.53,9.71,7.89,20.65,11.85,31,1.27,3.31,3.95,6.44,3.11,10.46l1.93.34c.27,1.28-.67,1.63-1.54,2-9.16,1.61-18.21-.43-27.3-.92l-4.14-1.46c-1.79-1.12-1.91-2.83-1.91-4.74.08-19.91-1.82-39.76-2.31-59.67-.3-12.39-.19-24.75-.24-37.21,3.67,7.3,6.57,14.79,7.42,23,1.89,2.24,1.48,5,1.47,7.58,0,4.84.88,9.58,1.37,14.36a16.94,16.94,0,0,0,6.49,11.41A14.76,14.76,0,0,1,148.86,407.22Z"/><path class="cls-17" d="M152.14,43.17c-2.93,1.1-2.73,4.29-4.19,6.37-1.06,1.51-2.28,3.05-3.87,1.92-6.54-4.65-13.82-1.4-20.68-2.26-1.05-.13-2.31,1.29-3.15-.07s-.16-2.55.74-3.65c1.67-2,1.44-4.6,2-7,.82-3.33,2.88-6.34,4.35-9.52.43-.92,1.74-1.84.32-3q7.08-11.88,14.17-23.77A4.27,4.27,0,0,1,145.94,0c9.59.22,19.2-.45,28.78.62.05,1.25-1.07,1.45-1.8,2-4.84,8.48-8.28,17.62-12.46,26.41-1.63,3.43-3.08,7-4.84,10.32C154.81,40.9,154.37,42.89,152.14,43.17Z"/><path class="cls-18" d="M288.19,3.31c1.71,13.81,3.1,27.67,5.2,41.41,2,12.82,3.95,25.58,3.19,38.6-.61,8.26-5.15,13.38-13.81,15.22s-16.48,0-22.51-7c-3.47-4.07-2.71-9-2.94-13.79,1-25.44,1.56-50.89,1.29-76.35,9.42-.05,18.86-1,28.25.63-2,2-4.62,1.59-7.08,1.63-4.32.07-8.65.17-13,0-4.14-.17-5.51,1.66-5.48,5.65.11,14.8,0,29.6.05,44.41,0,3-.06,6,.07,9,.1,2.35,1.11,3.82,3.6,3.84,8.14.06,16.21,1.53,24.39,1.14,3.38-.17,4-1.32,3.57-4.65-2.18-18.45-5.51-36.76-7.28-55.26-.19-2-.39-4,1.26-5.6a.4.4,0,0,1,.56,0A.84.84,0,0,1,288.19,3.31Z"/><path class="cls-19" d="M201.84,1c-1.65,5.69-3.26,11.38-5,17.05q-4.48,15-9.06,30c-1.63,5.31-3.28,10.62-5.22,15.82-.83,2.24-.47,2.93,1.84,3.25,10.09,1.38,20.22.93,30.35,1,1.37,0,2.69-.07,3-1.88,1.34-8.28,3.08-16.52,3.92-24.86.43-4.15,1.81-8,2.37-12.14,1.25-9.06,2.05-18.26,4.78-27.09.92,7.26-1.59,14.16-2.53,21.19-1.9,14.31-4.92,28.46-7.07,42.74A64.73,64.73,0,0,0,219.13,83a2.55,2.55,0,0,1,.22,1.65c-2.43,8-7.91,12.57-16,13.66-9.27,1.25-17-2-22.67-9.48a11.47,11.47,0,0,1-2.07-7c0-4.48-.24-9,.14-13.42,6.07-21.15,13.11-42,19.35-63.1a7.4,7.4,0,0,1,1.65-3c.38-.37.75-.76,1.09-1.16Z"/><path class="cls-20" d="M317.81,2.08q3.54,12.56,7.06,25.11c2.33,8.31,4.64,16.63,7,24.93,1.33,4.68,2.69,9.36,4.16,14a4,4,0,0,0,4.15,3c9.12-.15,18.21.27,27.3.93,4.57.33,5.42-1.17,3.34-5.25A8.43,8.43,0,0,1,369.9,60c5.93,7.14,5.13,15.7,5.1,24.1.16,7.46-5.14,13.56-14.4,15.72-7.93,1.85-15.08-.28-21.06-5.86a12.14,12.14,0,0,1-4-9.77c1.71-12.23-2.39-23.5-5.62-34.95C325.52,33.53,320.33,18,316.72,2.08Z"/><path class="cls-21" d="M174.62,454.66l16.29,10c1.33,2.16,6,2.43,4.84,5.25-1,2.32-4.77.59-7.28.59-5.79,0-11.57-.3-17.35-.43-8.92-.2-8.92-.18-8.16-8.95,1-1.89-.14-4.32,1.54-6C167.91,456,171.27,455.4,174.62,454.66Z"/><path class="cls-22" d="M41,181.07c-7.76-.26-15.3,1.92-23,2q4.56-13.6,9.11-27.19A163.71,163.71,0,0,0,41,181.07Z"/><path class="cls-23" d="M122,455.91a1.56,1.56,0,0,0,.57,0c2.63.46,5.09-.4,7.6-1l1.73-1c4.3,3.16,6.46,7.73,8.35,12.51.84,2.13,1,3.42-2,3.2-5.1-.36-10.22-.47-15.33-.62-2.42-.07-3.73-.86-3.28-3.59C120.13,462.17,120.31,458.86,122,455.91Z"/><path class="cls-24" d="M297.53,471.1l59.3-.14a3.9,3.9,0,0,1,2.41-.46c14.15.77,28.23-1.22,42.37-1.08,9.88.37,19.77.08,29.66.13a14.18,14.18,0,0,1,4.9.38,6.68,6.68,0,0,1,1.65,1l21.33.19c-1.7,1.49-3.78,1-5.73,1q-75.07,0-150.15,0C301.31,472.16,299.24,472.55,297.53,471.1Z"/><path class="cls-25" d="M165.17,455.23c-.74,2-1.47,3.93-2.21,5.89.18-3.37-2.07-4.51-4.8-5.19-7.12-1.8-13.9-4.86-21.25-5.82l28.08.13C169.75,451.73,167,453.5,165.17,455.23Z"/><path class="cls-26" d="M200.82,1.05l-.46,1c-1.61,1.45-3.6,1.58-5.61,1.59-5.81,0-11.62.15-17.42-.06-1.93-.07-4.51.69-5.26-2.32l2.65-.65Z"/><path class="cls-27" d="M288.19,3.31l-.64-1.22c9.45-.42,18.9-.3,28.35.17-4.66,1.78-9.49.56-14.24.81C297.18,3.31,292.68,3.25,288.19,3.31Z"/><path class="cls-28" d="M117.8,96.65a.55.55,0,0,1,.73-.13c2.27,1.63,2,4.12,2,6.38,0,43.13.2,86.25-.1,129.37,0,3.67-.08,7.33-.07,11-.11,1.93.25,4.07-2.27,4.87l-.27-17c0-21.48.43-43-.16-64.45-.19-7.19-4.62-13.7-7.66-20.26C95.79,115.85,77.14,88.06,56,61.88c-4.06-5-8.76-9.54-13.13-14.31-.73-.8-2.31-1.66-1.38-2.8,1.17-1.43,2.44-.12,3.33.82C52.86,54,61,62.35,68.78,71c9.48,10.47,17.36,22.22,25.14,33.93C101.53,116.36,108.7,128.18,114,141c.8,2,1.61,3.9,3.81,5.35Z"/><path class="cls-29" d="M385.84,97.19a12.75,12.75,0,0,0,8,2c1.75-.07,3.71-.46,4.68,1.7,1.09,21.45,2.38,42.89,3.2,64.35.88,23.29,1.32,46.6,2,69.9-.89,4.83-.12,9.72-.42,14.57-.1,1.56.59,3.27-.74,4.65a4,4,0,0,1-3.76-.48,24.59,24.59,0,0,0-10.64-3.6,3.55,3.55,0,0,1-3.2-2c-.86-2.22-.71-4.56-.72-6.86,0-13.21-.07-26.42.05-39.62,0-2.48-.69-5.42,2.42-6.89,1.32,4.38.48,8.88.57,13.31.15,7.81.07,15.63.08,23.45.17-37.66-2.59-75.32.35-113-.82,7.49.27,15-.84,22.52-2.49-.42-2.45-2.54-2.49-4.22-.28-11.9-.23-23.8,0-35.71A5.66,5.66,0,0,1,385.84,97.19Z"/><path class="cls-30" d="M385.69,248.62a25.5,25.5,0,0,1,15.9,5.51c1.29,0,1.21,1.73,2.4,1.83a81.46,81.46,0,0,1,12.31,30c.3,1.61.43,3.26.64,4.89-.16,1.42-.79,2.3-2.39,2-1.69-1.39-2-3.42-2.28-5.38-1.23-7.61-4.18-14.65-7-21.73-.31-.6-1,.22-.47-.13.16-.1.23,0,.4.31A4.34,4.34,0,0,1,405,271c-2.39.38-2.16-1.56-2.4-2.88-1.78-10-5.64-13.61-16-14.79-.93.08-2.18-.45-2.69.58s.68,1.66,1.31,2.34,1.19,1.12,1.75,1.72c5.53,7.34,8.52,15.83,10.35,24.64,1,4.8,2.53,8.36,7.67,9.41a1.35,1.35,0,0,1-.43,1.42c-4,.76-5.33,3-4.57,7,.38,2.05.79,5.5-2.28,5.67-3.35.2-3.15-3.2-3.27-5.64a21.79,21.79,0,0,0-1.06-6.85c-1.41-9.69-3.28-19.24-8.47-27.77-1.43-2.2-2.24-4.72-4.15-6.71-2.81-2.94-5.51-3.26-8.7-.76A33.1,33.1,0,0,0,362,271.76c-3,7-3.8,14.72-7.12,21.61a2.77,2.77,0,0,1-2.87.05c-1.31-3.26-.57-6.55.18-9.71,2.58-10.81,6.59-20.92,15.18-28.56a2.13,2.13,0,0,0,.95-1.75c-1.24-1.31-2.75-.64-4.12-.33-9.11,2-16.08,6.91-20.35,15.33a68.17,68.17,0,0,0-7.29,23.68c-.58,3.43.05,6.9-.47,10.31-.28,1.85-.83,3.86-3,3.94-2.51.09-2.43-2.24-2.65-4-.42-3.3.25-6.53.89-9.74.67-11.84,3.9-22.87,11.2-32.35,6.78-8.8,15.52-14.24,27-12.44C375,248.69,380.39,247.19,385.69,248.62Z"/><path class="cls-31" d="M404,256c-1.65.5-1.59-1.24-2.4-1.83,2.39-2.34.81-5.3,1.21-7.95.54-3.67-1-7.52.89-11.09Z"/><path class="cls-32" d="M412.6,85.05a31.11,31.11,0,0,1,.14-16A91,91,0,0,1,412.6,85.05Z"/><path class="cls-33" d="M118,248.13c1.28-1.23.66-2.9,1-4.35.69-8.48,2.68-16.7,4.91-24.88,1.32-4.84,2.66-9.61,6.63-13.16,2.07-1.84,1.83-4.52,1.84-7,0-9.49-.12-19,.11-28.46,0-1.86-1-4.86,2.71-5,1.34,1.9,1.13,4.1,1.15,6.23,0,8.11,0,16.22,0,24.33,0,7.45,0,7.45,7.37,7.68a29,29,0,0,1,3,.18c4.66,1.14,8.79,3.82,13.6,4.55,2.84.42,5.6.82,8-1.25a1.82,1.82,0,0,1,1.42-.25,16,16,0,0,0,6.53,4.33c7.14,2.77,13.05,7.09,17.22,13.62,5.37,8.48,12.76,14.15,22.7,16.26a4.93,4.93,0,0,1,3.27,2.07c2.07,6,4.42,11.86,5.92,18-2.92,4.48-7.74,4.8-12.27,5.14-12.43.91-23-4-32.6-11.36-4.86-3.73-4.95-3.8-7.57,1.88-7,15.06-13.74,30.19-20.68,45.26-1.36,2.94-.25,6.84-3.54,9-10.42-3.3-21.44-4-31.87-7.2-4.45-1.38-9.69-1.19-12.82-5.65.4-6,3.77-11.25,4.74-17.12a21.88,21.88,0,0,0,2.12-6.92c1.39-2.16-.92-5.32,1.89-7.1Q115.44,257.56,118,248.13Z"/><path class="cls-34" d="M112.83,267l-1.89,7.1c.22-5-3-8.72-4.94-12.87-4.48-9.6-8.85-19.31-14.12-28.5C81.49,214.59,64.36,205.6,45,200.14c-5-1.41-10.18-2.09-15.19-3.51a80.65,80.65,0,0,1,25.08,4.3c17.36,5.85,31.86,15.56,41,31.8,4.87,8.66,8.74,17.88,13,26.88C110.09,262.14,110.88,264.88,112.83,267Z"/><path class="cls-1" d="M169.83,207.24a3.43,3.43,0,0,1-.56-.08c-3-3.07-.5-6.27-.23-9.41,1.75-2.73,4.8-2.53,7.44-3.2,4.64-1.19,5-1.84,3.78-6.56-.78-2.92-1.92-5.61-4.41-7.52-1.06-3.28-2.25-6.52-3.35-9.78a8.47,8.47,0,0,0-4.64-5.38c-.55-1.9,1.12-2.17,2.17-2.74,2.33-1.28,3.54-3,2.6-5.69s-2.67-5.06-5.92-5.26a5,5,0,0,0-5.51,4,8.22,8.22,0,0,1-5.27,6.13,20,20,0,0,1-3.94.59c-4.78.71-5.8,2.72-3.55,7.12.63,1.21,1.46,2.45.79,3.74-1.71,3.25-.17,5.74,1.6,8.26,4,8.51.49,16.08-2.94,23.66l-4.95-.14c-8.1-.23-8.08-.22-8.11-8.58,0-10.39-.11-20.78-.17-31.17-1.66-2-1.36-4.39-1.36-6.69q-.08-29.22,0-58.43c0-2.81-.23-5.73,2.18-7.9,4.74-5.26,6-11.48,5.49-18.38-.19-2.35-.86-4.93.67-7.2,2.66,2.4,1.36,5.58,1.6,8.43.2,2.47,0,5,.1,7.44,2.24,8.29,7.95,12.68,16.72,12.86s15-4.38,17.39-12.77c.12-3.31-.11-6.62.13-9.9.12-1.58-.66-3.84,2.05-4.27,0,3.65.32,7.31.07,10.93C179,89,186.42,95,195,96.74c9.22,1.93,18.08-.77,22.32-10.27A17.86,17.86,0,0,1,218.9,84c2-.1,2.23,1.72,2.89,2.92,7,12.8,26.76,11.07,32.21.93A6.22,6.22,0,0,1,256.65,85q.35-3.66.67-7.3c.55,7,2,13.53,8.72,17.27,12.63,7,24.41,2.45,30.54-11.66l.48,1.68c1.43.74,1.9,2.24,2.76,3.43a19.69,19.69,0,0,0,32.43,0A6.51,6.51,0,0,1,334.67,86l.89-1.83c3.18,9.81,10,14.72,20.25,14.77,9.49,0,16.53-5.49,19.19-14.86,1.74,5.92,4.37,11.09,10.84,13.07-.06,14.76-.12,29.52.77,44.25.92.76.67,1.81.68,2.78q0,23.86,0,47.74c0,1,.24,2-.67,2.77-1.14,14.62-.36,29.28-.82,43.91-.11,3.33-.08,6.66-.11,10-4.77.76-9.3,1.38-14.39.49C355.11,246.3,344.1,257,338.66,269c-3.27,7.25-6,14.74-6,22.9-1.27,3.69-4.43,3.47-7.43,3.58-6.26.24-6.17.25-7.24,6.17-3.75,20.58-5.84,41.4-9.53,62-.78,4.36-1.15,8.87-1.58,13.33-1.25,9.53-2.81,19-4.46,28.48-.31,1.78-.23,3.7-1.74,5.07-3.81,1.71-7.83.6-11.75.86-5.09.35-10.25-.62-15.3.74q-18.27.69-36.56,0c-9.73-1.52-19.53-.45-29.29-.6-6.59.14-13.18.08-19.77,0-2.1,0-4.35.2-5.92-1.73-3.09-.94-6.29-.71-9.41-.62-3.39.11-4.32-1.2-4.9-4.48-5.29-29.76-9.94-59.65-17.7-88.91-.43-1.61-.89-3.21-1.33-4.81,5.46-20.91,16.86-39.31,25-59.06,1.78-4.31,3.67-1.19,5-.05,7.38,6.25,15.55,10.9,25.12,12.63,7.33,1.31,14.55,1.06,21-3.52,8.73-6.24,16.43-13.41,21.48-23.09,1.41-2.7,3.91-4.44,7-4,9.31,1.4,16.35-2.72,22.89-9.25-3,.22-5.58,1.74-8.37,2-2.25.2-4.46.61-5-2.52.49-5.19,3.78-9.19,6-13.61,10.12-20.61,20.28-41.21,30.3-61.87a19,19,0,0,0,2.36-7.05c.34-5-1.37-8.19-5.31-9.64a10.16,10.16,0,0,0-11.14,3.54,29.18,29.18,0,0,0-2.66,4.8c-8.06,16.25-16.25,32.44-23.93,48.87-.77,1.66-1.56,3.32-2.49,4.9-2.63,4.5-4.76,4.7-7.66.41q-10.79-15.91-20.24-32.64c-.21-.45-.35-.92-.56-1.37-3-6.49-5-7-10.37-2.48-8.36,6-9.09,9.58-3.82,18.61a18.6,18.6,0,0,1,2.43,5.37c.35,3.95-2.31,6.39-4.59,9-4,4.61-9.65,7.54-13.48,12.4-7.17,1.08-13.8,4.51-21.19,4.7C174.21,208.11,171.91,208.76,169.83,207.24Z"/><path class="cls-35" d="M273.53,410.83c8.92-1,17.89-.54,26.83-.74,1.13,7.14-1.48,13.8-2.65,20.65q-1.59,9.56-3.16,19.1H281.77c-11.78-.69-23.57-.56-35.35-.08-4.82.19-9.63.21-14.44.2-19.3,0-38.59.21-57.88-.12a2.63,2.63,0,0,1-2.24-2.71c1.23-1.87,2.47-3.73,2-6.14,3.52,1.16,1.73,3.41,1.58,5.51,21.92-.07,44.32,0,68-.07-4.39-3.15-7.77-5.5-11.67-6.82a5.73,5.73,0,0,1-4.33-5.9c-.07-2.33,0-4.65,0-7,0-3.7,1.41-6,5.45-6.26,1.56-.1,3.72-.07,3.74-2.38,0-2.67-2.35-2.26-4.06-2.55-2.46-.42-6.53.41-6.25-3,.23-2.72,4.22-1.58,6.47-1.47,19.11,1,38.22.15,57.33.45,1.38,0,2.8-.37,3.57,0C287.34,410.91,280.36,412.37,273.53,410.83Z"/><path class="cls-36" d="M273.53,410.83h22.26v1.25h-69c2.31,2.68,5.18,1.81,7.81,1.86,2.86.07,4.31,1,4.31,4.09s-1.58,4.33-4.37,3.92c-4.75-.68-6.25,1.36-5.71,5.85a62.35,62.35,0,0,1,.06,7.49,2.37,2.37,0,0,0,2.22,2.7c6.09,1.25,10.64,5.2,15.62,8.78-1.88,1.91-3.82,1.17-5.52,1.18-20.49.06-41-.08-61.46.14-3.95,0-5.91-.59-4.9-4.93a2.13,2.13,0,0,0-1-2.17c-1.87-8.62-1.82-17.57-4.76-26-1.1-3.17-.06-5.4,4.09-5a80.2,80.2,0,0,0,8.9-.13l25.8.36c7.79.79,15.61.11,23.41.36,2,.06,4-.33,5.94.35Z"/><path class="cls-37" d="M148.86,407.22q-11.55-5.6-12.13-18.41c-.29-6.28-.66-12.55-1-18.82,2.27-2.09,1.75.88,1.89,1.3q5.48,15.66,10.65,31.44C148.72,404.13,150.3,405.53,148.86,407.22Z"/><path class="cls-38" d="M171.86,447.13l1.27,1.82c1.69,1.07,3.57.52,5.35.53,21,0,41.92,0,62.87.07,1.73,0,3.66-.81,5.21.73-1.67,1.13-3.56.58-5.33.58-21.44.05-42.87,0-64.31.05-1.24,0-2.78-.54-3.62.91s.78,1.93,1.32,2.84c-3.05,1.89-6.05,4.6-9.45.57.31-1.68,2.76-3.43-.18-5l.76-1.25A6.5,6.5,0,0,1,171.86,447.13Z"/><path class="cls-39" d="M115.4,321.38c2.68,1.61,6.62,2.05,8.34,5.42,1.79,3.54,3,7.37,4.5,11.07.24.62.51,1.35-.23,1.76a1.34,1.34,0,0,1-2-.69,26.6,26.6,0,0,1-1.28-3.24c-1.62-5-3.52-9.74-9.28-11.4-.86-.25-2-.71-1.84-2C113.66,321.62,114.33,321.29,115.4,321.38Z"/><path class="cls-40" d="M130.16,455c-2.27,2.43-4.79,2.84-7.6,1C125,454.81,127.37,453.29,130.16,455Z"/><path class="cls-41" d="M305.71,377c1.27-9.84,2.49-19.7,3.84-29.53,1.72-12.46,3.6-24.9,5.29-37.37.6-4.43,2.18-8.67,2.14-13.24,0-2.76,2.35-2.58,4.4-2.8,3.82-.39,8.09,1.42,11.31-2.16-.45,3.76-1.16,7.51-.82,11.32.08.93-.2,2.26,1.19,2.29,1.15,0,1.51-1.1,1.63-2.13.46-4.09-.55-8.28.73-12.33a19,19,0,0,0,9.65.79c2.38-.4,4.94-.63,7,1.22l3-.17c1.46-1.38,3.32-1.38,5.13-1.38,8.1,0,16.2-.19,24.3.07,3.12.14,6.39-.8,9.25,1.27,2.63,1.39,1.94,3.91,2.07,6.15.09,1.64.06,3.3.24,4.93a1.63,1.63,0,0,0,1.56,1.62c1.12,0,1.12-1,1.12-1.83,0-1.81.39-3.79-.2-5.41-1.62-4.45.1-5.72,4.27-5.25a18.66,18.66,0,0,0,2,0c1.66-1.29,3.32-1.56,5,0,.33,9.63,2.89,18.92,4.35,28.38,2.72,17.61,5.68,35.18,8.69,52.74,2.59,15.12,4.36,30.38,7.59,45.4.52,2.39.27,4.95.37,7.44-2.51,4.57-4.53,5.13-7.09,1.31-4.38-6.55-10.92-10.15-17.5-13.63-9.75-5.15-18.22-12.2-27.58-17.91-3-1.83-4.89-5-6.9-7.81s-4.73-4.56-8.41-4.43a13.65,13.65,0,0,1-11.05-4.81c-3.29-3.65-7-6.63-12-7.64-1.32-.27-2.79-.91-3.25-2.13-3.15-8.33-11.25-10.4-17.91-14.13-6.31-3.54-7.33-2.64-8.13,4.63-.51,4.58-2.28,9-2.21,13.69C308.82,375.7,308.11,377.53,305.71,377Z"/><path class="cls-42" d="M305.71,377c1-.39,2.05-1.09,1.91-2.07-.84-5.74,2.22-10.9,2.24-16.51s2.36-6.86,7.41-4.76a115.23,115.23,0,0,1,15.29,8.22c2.17,1.32,4.08,2.78,4.38,5.65a3.6,3.6,0,0,0,3.23,3.34c5.77.61,9.62,4.17,13.19,8.2a11.81,11.81,0,0,0,10.6,4.14,8.35,8.35,0,0,1,8,3.92,41,41,0,0,0,11,11.2c11.18,7.43,22.61,14.45,34.05,21.47,2.72,1.67,5.22,3.59,6.61,6.57,2.06,4.4,4.43,4,7.12.63a99.86,99.86,0,0,1,3,19.75,9.38,9.38,0,0,0,1,4.24c-.15,6.15,2.23,12,2.32,18.11a2.6,2.6,0,0,1-.32,1.86h-35c1-3.43,4-3,6.43-3.15,5.48-.29,11,0,16.47-.14,1.72,0,3.67.61,5.29-1.24-2.78-3-6.44-4.66-9.77-6.74-4.95-3.1-9.08-7.38-13.8-10.54-13.77-9.23-22.16-24.41-36.93-32.38-2.78-1.5-5.39-3.31-8.45-4.18-4.39-1.26-8.42-3.06-11.58-6.52-1.91-2.08-4.46-2.72-7.24-2.81-8.14-.24-15.21-2.36-20.3-9.59a32.64,32.64,0,0,0-10.24-9.4c-1.12-.64-2.39-1.61-3.68-.64-1.14.86-.36,2.14-.15,3.25,0,.16.17.36.12.48-3.64,7.82-.06,17.44-6.13,24.65.06,6.49-2.37,12.58-3,19-.23,2.37-.86.44-1.15-.25q1.32-10.32,2.65-20.65Q303,393.55,305.71,377Z"/><path class="cls-43" d="M409.79,293l-5,0a1.51,1.51,0,0,0-.1-.89c-2.48-7.26-2.16-14.55-.24-21.86.15-1.89.31-3.78.55-6.74,5.76,9.67,7.93,19.37,9.55,29.25Z"/><path class="cls-44" d="M436.8,471q-1.49-8.91-2.94-17.83a2.14,2.14,0,0,1,.94-2.14c1.48,6.58,3.47,13.08,3,20Z"/><path class="cls-44" d="M301.86,412c3.3-4.81,1.85-10.25,2-15.46,0-1.54,1.14-2.3,1.78-3.42,1.11-2,2.41-3.9.79-6.41-1-1.55-1.27-3.88.18-5.1s3.57.15,5.05,1A36.76,36.76,0,0,1,324,394c4.54,6.62,10.93,7.61,17.72,7.89,4,.17,7.15,1.09,9.64,4.16a14,14,0,0,0,7.57,4.51A43.34,43.34,0,0,1,379,422.8c2,2.11,5,2.68,6.9,4.83,3.54,4,8.85,6.54,10,12.52a4.15,4.15,0,0,0,3.19,2.94c5.24,1.13,8.24,5.17,11.87,8.53,5.39,5,12.07,8.14,18.2,12.08,1.38.89,3.42,1.54,3.09,3.44-.44,2.47-2.83,1.8-4.55,1.82-6.15.06-12.31.05-18.46,0-2.69,0-5.29.22-7.49,2h-45c7-2.16,14.11-.55,21.16-.91,2.85-.15,5.64-.26,8.28-1.38.85-.37,2.18-.62,1.93-1.86a2.62,2.62,0,0,0-1.82-1.44c-6.16-1.15-7.74-6.23-9.59-11-3.11-8.1-4.48-9.13-13-9.34-8.06-.2-15.19-5.27-18-13.95-2.24-7-7.48-9.87-13.5-12.37a46.89,46.89,0,0,1-15.34-10c-4.94-4.93-5.85-4.81-10.11.66C305.64,411,304.15,412.3,301.86,412Z"/><path class="cls-20" d="M369.94,60.05c-2.61-2.46-4.37-5.3-4.06-9.07A26.4,26.4,0,0,1,369.94,60.05Z"/><path class="cls-45" d="M256.65,85c-3.32,8.35-8.86,12.13-17.85,12.19-9.9.06-15.54-3.5-19.07-12a6.43,6.43,0,0,0-.83-1.2c.08-.36.15-.71.23-1.07,1.52-2.65.76-5.56.64-8.29-.17-3.53,1.23-5.1,4.53-5.89,5.28-1.27,10.64-.94,15.85-.43A67.45,67.45,0,0,0,251,69c3.64-.24,5,.86,4.93,4.71S254.89,81.36,256.65,85Z"/><path class="cls-46" d="M334.67,86c-3.54,8.57-10,12.47-20.13,12.1A18.73,18.73,0,0,1,297.06,85c1.71-3.65.46-7.51.75-11.26.16-2,.19-3.68,2.86-3.64,10,.15,19.93.38,29.89.25,3.31,0,3.2,1.57,3.33,4C334.1,78.21,332.85,82.23,334.67,86Z"/><path class="cls-47" d="M246.56,450.28c-22.89-.07-45.78-.12-68.66-.29-1.56,0-3.6,1.13-4.77-1q51.45,0,102.88.09c1.93,0,4-.69,5.76.8Z"/><path class="cls-48" d="M179.62,68.45c-1.57,5.08.12,10.39-1,15.5-3.53-1.88-2-5.25-2.11-8-.32-6-.17-6-6-6.94-8-1.22-15.87,1.43-23.86.42-2.06-.26-2.16,1.67-2.24,3.18-.11,2.33.13,4.67-.14,7-.19,1.65.38,3.85-2.19,4.37q-.21-8.67-.43-17.34l10.51-23.49C159,30,164.76,16.28,170.94,2.77a8.74,8.74,0,0,1,1.13-1.49c5.59,1.75,11.32.48,17,.79,3.77.2,7.55,0,11.32,0q-9.92,32.31-19.84,64.61A10.92,10.92,0,0,1,179.62,68.45Z"/><path class="cls-49" d="M135.47,92.24l-.81,73c-1.21,11.38-.41,22.79-.55,34.19-.05,3.45-.21,6.36-3.58,8.47-2.08,1.3-3.09,3.7-3.73,6.24-2.49,9.9-5.15,19.76-7.75,29.63q-.21-56.16-.44-112.32-.06-17.48-.08-34.95A27.3,27.3,0,0,0,135.47,92.24Z"/><path class="cls-50" d="M287,2.11a173.85,173.85,0,0,0,1.68,18.2c1.51,9.93,2.33,20,4.35,29.81,1.1,5.33-.39,11,2.53,16.08,1.07,1.87-.63,2.79-2.68,2.92-10.14.65-20.18-1.27-30.3-1-2.28.06-2.72-1.31-2.72-3.22,0-19.79,0-39.57,0-59.36,0-3.18,1.67-3.41,4.11-3.4,7.64,0,15.29-.06,22.94-.11Z"/><path class="cls-51" d="M386.62,194.72q0-26.64,0-53.29V114.14h.95V234h-.94Z"/><path class="cls-52" d="M385,292.77c-10,.53-19.93.54-29.9.12,2-11.65,4.38-23.14,12.73-32.24,7.7-8.39,12.19-7.78,17.72,4.41a9.31,9.31,0,0,1,1.67,6C387.12,278.34,387.22,285.68,385,292.77Z"/><path class="cls-53" d="M352.1,293.06c-3.71.27-7.42.59-11.14.78-2.32.12-4.62,0-5.54-2.79a70.91,70.91,0,0,1,7.63-24c5.61-10.75,18.23-17.36,28.86-14.47C358.68,263.13,353.73,277.33,352.1,293.06Z"/><path class="cls-54" d="M404.45,270.33l.24,21.86c-5.56,1.33-7.23-1.44-8.07-6.56a65.58,65.58,0,0,0-11.14-27.91c-.83-1.9-1.29-3.79.24-5.59C397,251.82,403.11,257.72,404.45,270.33Z"/><path class="cls-55" d="M385,292.77q.28-13.86.55-27.71a47.9,47.9,0,0,1,8.23,27.79Z"/><path class="cls-56" d="M385.72,252.13l-.24,5.59a6.55,6.55,0,0,1-1.59-1.15c-.82-1.13-2.95-1.81-2.21-3.48S384.23,252,385.72,252.13Z"/><path class="cls-52" d="M218.9,243.09c-10.1-2-18.54-6.64-24.73-15.06a5.08,5.08,0,0,1-1.45-3.05c.94-2.58,3.51-3.37,5.43-4.86,3-2.32,6.24-4.37,8.48-7.55,4.8-3.72,8-8.65,11-13.85,1.18-2.08,2.13-4.68,5.36-4.32,4.16,3,6.12,7.75,8.69,11.9,4.54,7.3,9.62,14.3,13.08,22.25.62,2.67.08,5.09-2.16,6.71A45.27,45.27,0,0,1,221.67,244,3.54,3.54,0,0,1,218.9,243.09Z"/><path class="cls-57" d="M218.9,243.09c7.72-.65,14.55-3.64,21.14-7.56,3-1.78,4.26-3.94,3.88-7.26.81-.59,1.52-.17,2.24.22,7.2,3.88,10.12,3.3,15.48-3.09.52-.62.95-1.34,1.93-1.2,2.68,3.64,5.68.55,8.32.08,2.41-.43,4.66-1.52,7.52-.3C272.89,227.66,269,235.56,259.9,235c-2.15-.13-4.32.17-6.47.05-3.29-.18-5.14,1.46-6.52,4.28-4,8.22-10.47,14.35-17.52,19.93-1.31,1-2.65,2-4.49,1.7A60.58,60.58,0,0,1,218.9,243.09Z"/><path class="cls-58" d="M169.91,197.33c.68,3.34-1.45,6.49-.65,9.83-.21,2.6-1.88,3-4.1,2.92-6.2-.14-11.81-2.25-17.27-4.93.67-3,.9-6.22,2.09-9,2.14-5.05,1.4-9.85-.18-14.74,2.56-3.94,5.29-4.31,8.17-1.07,1.46,1.64,2.28,3.68,3.35,5.55C163.71,190.05,166.21,194.13,169.91,197.33Z"/><path class="cls-59" d="M207,213.22c-3.13,5.88-9.25,8.15-14.26,11.76-5.36-7.27-12.8-11.53-21.08-14.58-1.49-.54-1.85-1.74-1.81-3.16,8.57-.69,17.19-1.24,25-5.31,1.49-.78,2.06.27,2.93.9C201.88,205.39,204.48,209.26,207,213.22Z"/><path class="cls-60" d="M259.8,329c-12.32,0-24.64.1-37-.06-3.3-.05-3.92.73-3,3.92,4.57,15,4.49,15.05,20,15.09,17.49.05,35,.05,52.46.18,3,0,7.71-.76,7.62,3.3s-4.74,2.51-7.46,2.48c-22.63-.2-45.25-.61-67.87-.84-3.37,0-4.9-1.27-5.92-4.6C212,326.78,205,305.15,198.27,283.42c-1.1-3.56-2.81-4.86-6.38-4.46a54.32,54.32,0,0,1-7,0c-1.7,0-3-.74-2.91-2.64.06-1.62,1.29-2.22,2.73-2.34,2.65-.23,5.28-.14,7.94-.61,7-1.24,8.41-.4,10.52,6.41,1,3.33,2.74,4.5,6.12,4.17,17.43-1.68,34.95-.13,52.36-1.2,15.81-1,31.6-.47,47.4-.8,5.86-.13,6.51.72,4.82,6.41-3.6,12.08-7.44,24.09-11,36.18-1,3.49-3,4.58-6.58,4.53C284.12,328.93,272,329,259.8,329Z"/><path class="cls-61" d="M263.57,224.2c-4.6,9.11-11.45,10.53-19.66,4.07l-21-33.47a20.52,20.52,0,0,1-7.76-12.64c-1.21-2-2.4-4-3.62-5.94-5.17-8.37-3.41-14.53,5.47-19.13,6.79-2.27,8.3-1.76,11.77,4q10.14,16.23,20.31,32.44c.76,1.21,1.37,3.13,2.86,3.15,1.87,0,2.3-2,3-3.49q13.92-28.29,27.91-56.56c3.87-7.77,13.32-9.25,18.39-2.8,3.11,4,2.46,8.41.37,12.66q-18,36.6-36,73.16C264.85,221.14,264.24,222.68,263.57,224.2Z"/><path class="cls-62" d="M142.06,84c1.83-4.29.5-8.79.78-13.18.16-2.62.37-3.77,3.71-3.15a34.84,34.84,0,0,0,14.76-.23c5-1.24,9.83.55,14.74.8,2.14.11,1.68,2.05,1.82,3.48.39,4.07-.84,8.23.73,12.23-3,8.32-9.09,12.68-18,12.89C151.86,97.05,145.48,92.64,142.06,84Z"/><path class="cls-63" d="M169.91,197.33c-1.88-.05-3.45-.39-4.53-2.33-2.25-4-4.87-7.86-7.14-11.88-2.57-4.58-3.93-4.93-8.44-1.74-1.41-.91-3.67-2.49-2.88-3.59,3.57-5-3-9.07-.82-13.64,2-4.23,6.15-3.1,9.68-3.36,2.51,1.26,5.61,1.78,6.48,5.12a15.66,15.66,0,0,0,3.13,17c2,2.13,3.64,1.47,5.53-.08,1.57-1.29,2.6-3.58,5.24-3,3.42-.41,3.36,2.47,4.11,4.46,3.78,10.05,3.76,10.06-6.52,12.2C172.46,196.72,171.19,197,169.91,197.33Z"/><path class="cls-64" d="M215.11,182.16l7.76,12.64c-3.77,1-4,4.92-5.83,7.45-3,4-5.15,8.73-10.06,11-3.71-2.9-6.49-6.6-9.19-10.39.35-4.4,4.63-5.22,7.09-7.66C208.84,191.23,213.75,188.12,215.11,182.16Z"/><path class="cls-65" d="M294.88,369.86a11,11,0,0,1-12,11c-5.73-.43-11.21-4.25-11.12-11.53a11.24,11.24,0,0,1,11.41-11.19A12.16,12.16,0,0,1,294.88,369.86Z"/><path class="cls-66" d="M233.33,379.12c-6.21,0-11.4-4.93-11.35-10.72s5-10.5,11.44-10.48c6.17,0,11.39,4.94,11.36,10.7S239.69,379.15,233.33,379.12Z"/><path class="cls-67" d="M176.16,179.79c-1.69,1.54-3.48,3-5,4.65-2.71,2.87-5.09,2.12-6.78-.81a111.42,111.42,0,0,1-5.38-11c-1.37-3.12,1.37-4.69,2.9-6.69,1.67-2.37,3.78-2.46,6.16-1.18,3,0,4.68,1.29,5.18,4.56C173.75,172.86,177.12,175.71,176.16,179.79Z"/><path class="cls-68" d="M168,164.72l-6.16,1.18c-1.28-2.59-5.13-2.13-6.08-5.11,1.46-1.59,3.94-2.17,3.87-5.19-.09-4,3-5.49,6.3-5.52,4.66-.05,7.05,3.15,8.28,7.27,1.06,3.53-1.23,5.15-3.95,6.42C169.54,164.12,168.77,164.41,168,164.72Z"/><path class="cls-69" d="M228.73,161.1c-2.87-4.42-7.22-4.5-11.77-4,1.8-1.48,2.61-5,5.7-3.83A9.32,9.32,0,0,1,228.73,161.1Z"/><path class="cls-35" d="M237.26,410.88l-26.63.12a3.34,3.34,0,0,1-2.72-.83C217.69,410.29,227.49,409.83,237.26,410.88Z"/><path class="cls-70" d="M288.72,369.61c-.49,3-2.26,5.17-5.45,5.13s-5.19-2.23-5.32-5.4,2.24-4.89,5-4.89A5.35,5.35,0,0,1,288.72,369.61Z"/><path class="cls-71" d="M233.35,373.09c-3.35.28-5.17-1.65-5.19-4.6a5.2,5.2,0,1,1,10.4.06C238.55,371.5,236.64,373.39,233.35,373.09Z"/></svg>