<svg id="Слой_1" data-name="Слой 1" xmlns="http://www.w3.org/2000/svg" viewBox="0 0 252.68 237.77"><path d="M252.65,66.25c-.8-34.47-29.71-64.41-64.12-66C162.39-1,142.12,9.72,126.74,30.69c-.56-.17-.77-.17-.85-.27-1.13-1.43-2.21-2.91-3.39-4.31C104.37,4.51,81.21-4.23,53.8,1.92,26.62,8,8.72,25.45,2.3,52.67s1,51.77,17.18,73.94c11.41,15.58,25.89,28.19,40.37,40.75,24.34,21.11,48,42.87,65.91,70,.15.22.58.26,1,.42a8.4,8.4,0,0,0,1-1c15.14-23.88,35-43.47,55.72-62.44,16.06-14.72,32.17-29.55,46.78-45.67C245.91,111.27,253.21,90.05,252.65,66.25ZM218.88,127c-7.82,8.63-16.22,16.78-24.86,24.59-23.83,21.57-48.48,42.3-67.59,69.44L121,214.17c-16.26-20.46-35.73-37.7-55.29-54.84C51,146.37,36,133.54,24.89,117A89.42,89.42,0,0,1,12.38,90a89.29,89.29,0,0,0,12.5,27C36,133.5,50.94,146.33,65.74,159.29c19.56,17.14,39,34.37,55.29,54.84l5.39,6.82c19.11-27.13,43.76-47.86,67.59-69.43,8.63-7.82,17-16,24.86-24.59,14.77-16.29,23.87-35.09,23.85-57.69a60,60,0,0,0-1.89-15,60.28,60.28,0,0,1,1.9,15C242.75,91.89,233.65,110.68,218.88,127Z"/></svg>