<svg id="Слой_1" data-name="Слой 1" xmlns="http://www.w3.org/2000/svg" viewBox="0 0 107.53 25.33"><defs><style>.cls-1{isolation:isolate;}</style></defs><g class="cls-1"><g class="cls-1"><path d="M0,3.74V.09H22.52V3.74ZM9.24,25.33V5.56h3.64V25.33Z"/></g><g class="cls-1"><path d="M30.31,6.5l2.39,4.36-8,14.47H19.88ZM47.92,25.33H43.11L33.9,8.69,31.5,4.34,33.9,0h0l2.41,4.34Z"/></g><g class="cls-1"><path d="M74.64,25.33h-4.2L63.29,13.6l-.2-.32h0l-.19.05-.06,0-.28.06c-.22.05-.43.1-.64.13l-.19,0-.1,0-.24,0h-.1a1.09,1.09,0,0,1-.26,0l-.31,0h0l-.29,0H55.12V25.33H51.54V.44H72.13q0,.44,0,.87A12.1,12.1,0,0,1,71.86,4a12.37,12.37,0,0,1-3.4,6.14c-.15.15-.31.3-.48.44l-.16.15h0l-.22.19-.15.12-.12.09c-.13.1-.27.21-.42.31l-.2.14h0l-.19.13,0,0-.07,0,.43.71ZM66,7.61A8.83,8.83,0,0,0,68.16,4h-13v6.14h4.61a8.77,8.77,0,0,0,3.52-.73A9,9,0,0,0,66,7.61Z"/><path d="M78.22,25.33V.46H81.8V25.33Zm0-24.87V25.33H81.8V.46Zm3.46.12H78.34V25.21h3.34Z"/><path d="M107.53,25.33h-5.07l-9.88-9.88-3.64,3.64v6.24H85.36V17.59L88.94,14v0l2.94-2.94L102.46.51h5.06L95.11,12.92ZM88.78,11.65l-3.42,3.41V.51h3.58v11Z"/></g></g><polygon points="32.79 14.93 30.72 18.51 40.57 18.51 40.57 14.93 32.79 14.93"/></svg>