<svg id="Слой_1" data-name="Слой 1" xmlns="http://www.w3.org/2000/svg" viewBox="0 0 132.91 133.23"><defs><style>.cls-1{fill:#fcee21;}.cls-1,.cls-2{opacity:0.3;}.cls-2{fill:#22b573;}.cls-3{fill:#1a6cab;}.cls-4{fill:#fb0e2d;}.cls-5{fill:#130f10;}</style></defs><path class="cls-1" d="M41.47,66.5a25,25,0,0,1,25-25v-26a52,52,0,0,0,0,104v-28A25,25,0,0,1,41.47,66.5Z"/><path class="cls-2" d="M66.47,15.46v26a25,25,0,0,1,0,50v28a52,52,0,0,0,0-104Z"/><path class="cls-3" d="M40.84,67.56c-2.39,13.89-9.92,21.18-23,24.32C30.85,95.14,38.5,102,41,114.41c3-12.15,10.35-19.78,24.22-22.63C51.1,89.1,44.11,81.08,40.84,67.56Zm.63,29.94a5,5,0,1,1,5-5A5,5,0,0,1,41.47,97.5Z"/><path class="cls-4" d="M40.88,18.16C38.09,31,30.29,38.12,18,41.11c12.22,2.94,19.88,10,23.2,22.35C44,50.93,52.42,44.57,65.26,41,51.44,38.06,44.2,30.17,40.88,18.16Zm.59,28.34a5,5,0,1,1,5-5A5,5,0,0,1,41.47,46.5Z"/><path class="cls-3" d="M91.72,18.14c-3.61,13.38-7,16.79-22.76,23.18,12.31,2.74,19.67,9.92,22.92,23,3.47-12.47,9.9-20.28,21.85-23.17C101.76,38.19,95.31,30.09,91.72,18.14Zm.75,28.36a5,5,0,1,1,5-5A5,5,0,0,1,92.47,46.5Z"/><path class="cls-4" d="M91.81,68.82c-2.66,12.39-10.16,19.64-22,23,5.52,1.79,10.43,4.06,14.33,8.11s6,9.16,7.8,16.12c2.88-13.79,10.53-21.14,22.79-24.32C102.16,88.87,94.84,81.17,91.81,68.82Zm.66,28.68a5,5,0,1,1,5-5A5,5,0,0,1,92.47,97.5Z"/><path class="cls-5" d="M66.43,101.35c-2.53,8.44-7.11,13.41-14.53,16.06C60,119.46,64,125,66.52,133.23c2.65-8.87,7.3-13.55,14.66-16.09C73.54,114.84,69.2,109.65,66.43,101.35Zm0,19.15a3,3,0,1,1,3-3A3,3,0,0,1,66.47,120.5Z"/><path class="cls-5" d="M15.77,51.47C13.63,59.3,8.31,63.59,0,66.53c8.58,2.73,13.63,7.31,15.76,15.13,2-7.86,7-12.63,14.84-15.1C23,63.94,18.07,59.25,15.77,51.47Zm-.3,18a3,3,0,1,1,3-3A3,3,0,0,1,15.47,69.5Z"/><path class="cls-5" d="M66.48,0C63.76,8.67,59,13.58,51.15,15.76c8.71,1.48,12.31,7.72,15.69,15.49,2-8.69,7.22-12.79,15.1-15.58C74.09,13.13,69.25,8.6,66.48,0Zm0,18.5a3,3,0,1,1,3-3A3,3,0,0,1,66.47,18.5Z"/><path class="cls-5" d="M117.47,51.84c-2.76,7.1-7.25,12.16-14.77,14.72,8,2.37,12.15,8,15,15.07,1.35-8.62,7.19-12.32,15.18-15.1C125,63.51,119.64,59.47,117.47,51.84Zm0,18.66a3,3,0,1,1,3-3A3,3,0,0,1,117.47,70.5Z"/><path d="M78.71,60.5a17.27,17.27,0,0,0-1.46-3.78c-.73-1.22-1.18-1.54-3.68-1.54H69V77.32c0,3.54.37,4,4.69,4.31v1.28H60.48V81.63c4.23-.27,4.59-.72,4.59-4.31V55.18H60.93c-2.5,0-3.23.27-4,1.63a21,21,0,0,0-1.5,3.69H54.07c.27-2.78.54-5.64.68-8.19h1c.68,1.1,1.18,1,2.45,1h18a2.28,2.28,0,0,0,2.32-1h1.09c0,2.14.18,5.41.41,8Z"/></svg>